---
config:
  theme: default
  layout: elk
  elk:
    nodePlacementStrategy: SIMPLE
---
%% Auto-generated from OWL/SHACL
classDiagram
    class AbstractEmissiepunt:::system {
    }
      class Adres {
        string uuid
        string uri
        Date geldigVan
        Date aangemaaktOp
        Date geldigTot
        string straat
        string stad
        string postcode
    }
      class Apparaat:::system {
        string uuid (PK)
        string uri
        Date aangepastOp (PK)
        Date aangemaaktOp
        Date geldigVan (PK)
        Date geldigTot
        ExploitatieLocatie locatie (FK)
        string benaming
        string geometrie
    }
      class Contactpersoon {
        string uuid (PK)
        string uri
        Exploitant exploitant (FK)
        string benaming
        string email
        string telefoonnummer
        string hasRole
        Adres adres (FK)
        Date aangepastOp (PK)
        Date aangemaaktOp
        Date geldigVan (PK)
        Date geldigTot
        string name
    }
      class Emissiepunt:::system {
        string uuid (PK)
        string uri
        string benaming
        string type
        Date geldigVan (PK)
        Date geldigTot
        Date aangepastOp (PK)
        Date aangemaaktOp
        ExploitatieLocatie locatie (FK)
        string geometrie
    }
      class Exploitant {
        string uuid (PK)
        string uri
        Date aangepastOp (PK)
        Date aangemaaktOp
        Date geldigVan (PK)
        Date geldigTot
        string type
        string benaming
        Adres adres (FK)
    }
      class Exploitatie {
        string uuid (PK)
        string uri
        string benaming
        Date aangepastOp (PK)
        Date aangemaaktOp
        ISysteem[] inzetbaarSysteem (FK)
        ExploitatieLocatie locatie (FK)
        Date geldigVan (PK)
        Date geldigTot
        ExploitatieIdentifier[] identifiers (FK)
    }
      class ExploitatieIdentifier {
        string inScheme
        string notatie (PK)
        Date geldigTot
        string value
    }
      class ExploitatieLocatie {
        string uuid
        string uri
        Date aangepastOp (PK)
        Date aangemaaktOp
        string benaming
        Date geldigVan (PK)
        Date geldigTot
        Exploitant toegewezenAan (FK)
        string beinvloedDoor
        ExploitatieLocatie revisieVan (FK)
        string geometrie
        Adres adres (FK)
        ExploitatieLocatieIdentifier[] identifiers (FK)
    }
      class ExploitatieLocatieIdentifier {
        string inScheme
        string notatie (PK)
        Date geldigTot
        string value
    }
      class Grondwaterput:::system {
        double diepte
    }
      class Installatie:::system {
        string uuid (PK)
        string uri
        ISysteem[] heeftSubSysteem (FK)
        Proces[] implementeert (FK)
        string benaming
        Date aangepastOp (PK)
        Date aangemaaktOp
        Date geldigVan (PK)
        Date geldigTot
        ExploitatieLocatie locatie (FK)
        Installatie revisieVan (FK)
        InstallatieIdentifier[] identifiers (FK)
    }
      class InstallatieIdentifier {
        string inScheme
        string notatie (PK)
        Date geldigTot
        string value
    }
      class Lozingspunt:::system {
        double diepte
    }
      class Meetpunt:::system {
        string uuid (PK)
        string uri
        string benaming
        string type
        Date aangepastOp (PK)
        Date aangemaaktOp
        Date geldigVan (PK)
        Date geldigTot
        string geometrie
        MeetpuntIdentifier[] identifiers (FK)
    }
      class MeetpuntIdentifier {
        string inScheme
        string notatie (PK)
        Date geldigTot
        string value
    }
      class Observatie {
        string uuid (PK)
        string uri
        Meetpunt hasFeatureOfInterest (FK)
    }
      class Onttrekkingspunt:::system {
        string uuid (PK)
        string uri
        string benaming
        string type
        Date geldigVan (PK)
        Date geldigTot
        Date aangepastOp (PK)
        Date aangemaaktOp
        ExploitatieLocatie locatie (FK)
        string geometrie
    }
      class Proces:::procedure {
        string uuid (PK)
        string uri
        Proces revisieVan (FK)
        Date aangepastOp
        Date aangemaaktOp
        string benaming
        Proces type
        ISysteem geimplementeerdDoor (FK)
        ProcesVariabele[] heeftInvoer (FK)
        ProcesVariabele[] heeftUitvoer (FK)
        Proces[] onderdeelVan (FK)
    }
      class ProcesVariabele {
        string uuid (PK)
        string uri
        string benaming
        string type
        number eenheid
        string waarde
    }
      class Schouw:::system {
        double diameter
        double hoogte
    }
      class ISysteem {
        <<interface>>
        string uuid
        string uri
        ExploitatieLocatie locatieId
    }
    class ISpatialObject {
        <<interface>>
        string uuid
        string uri
    }
    class IAxente {
        <<interface>>
        string uuid
        string uri
    }
    Apparaat --> ExploitatieLocatie : locatie
    Contactpersoon --> Exploitant : exploitant
    Emissiepunt --> ExploitatieLocatie : locatie
    Exploitatie --> ExploitatieLocatie : locatie
    Exploitatie --> ExploitatieIdentifier : identifiers
    ExploitatieLocatie --> Exploitant : toegewezen aan
    ExploitatieLocatie --> ExploitatieLocatie : revisie van
    ExploitatieLocatie --> ExploitatieLocatieIdentifier : identifiers
    Installatie --> Proces : implementeert
    Installatie --> ExploitatieLocatie : locatie
    Installatie --> Installatie : revisie van
    Installatie --> InstallatieIdentifier : identifiers
    Meetpunt --> MeetpuntIdentifier : identifiers
    Observatie --> Installatie : has feature of interest
    Onttrekkingspunt --> ExploitatieLocatie : locatie
    Proces --> Proces : revisie van
    Proces --> ProcesVariabele : heeft invoer
    Proces --> ProcesVariabele : heeft uitvoer
    Proces --> Proces : onderdeel van
    class Procedure {
        <<enumerable>>
        VERWERKING
        TRANSPORT
        VERBRUIK
        EMISSIE
    }
    Proces --> Procedure : type

    Emissiepunt <|-- AbstractEmissiepunt
    Emissiepunt <|-- Schouw
    Onttrekkingspunt <|-- Grondwaterput
    Emissiepunt <|-- Lozingspunt
    ISysteem <|.. Installatie
    ISysteem <|.. Emissiepunt
    ISysteem <|.. Onttrekkingspunt
    ISysteem <|.. Meetpunt
    ISysteem <|.. Apparaat
    ISpatialObject <|.. Emissiepunt
    ISpatialObject <|.. Onttrekkingspunt
    ISpatialObject <|.. Meetpunt
    ISpatialObject <|.. Apparaat
    IAxente <|.. Exploitant
    Exploitant --> Adres : adres
    Contactpersoon --> Adres : adres
    ExploitatieLocatie --> Adres : adres
    Exploitatie --> ISysteem : inzetbaar systeem
    Proces --> ISysteem : geïmplementeerd door
    Installatie --> ISysteem : heeft subsysteem
    Observatie --> Meetpunt : has feature of interest

    %% system style
    classDef system fill:#cfc,stroke:#333,stroke-width:1px
    %% procedure style
    classDef procedure fill:#ccf,stroke:#333,stroke-width:1px
