%% Auto-generated from OWL/SHACL
classDiagram
    class AbstractEmissiepunt {
    }
      class Adres {
        string straat
        string stad
        string postcode
    }
      class Apparaat {
        string uuid
        string uri
        Date aangemaaktOp
        Date geldigVan
        Date geldigTot
        ExploitatieLocatie locatie (FK)
        string benaming
        string geometrie
    }
      class ExploitantContactpersoon {
        string uuid
        string uri
        IAgent exploitant (FK)
        string benaming
        string email
        string telefoonnummer
        string hasRole
        Address adres (FK)
        Date aangemaaktOp
        Date geldigVan
        Date geldigTot
        string name
    }
      class Emissiepunt {
        string uuid
        string uri
        string benaming
        string type
        Date geldigVan
        Date geldigTot
        Date aangemaaktOp
        ExploitatieLocatie locatie (FK)
        string geometrie
    }
      class Exploitant {
        string uuid
        string uri
        Date aangemaaktOp
        Date geldigVan
        Date geldigTot
        Contactpersoon type (FK)
        string benaming
        Address adres (FK)
    }
      class ExploitatieLocatie {
        string uuid
        string uri
        Date aangemaaktOp
        string benaming
        Date geldigVan
        Date geldigTot
        IAgent toegewezenAan (FK)
        string beinvloedDoor
        ExploitatieLocatie afgeleidVan (FK)
        string geometrie
        Address adres (FK)
        ExploitatieLocatieIdentifier[] identifiers (FK)
    }
      class ExploitatieLocatieIdentifier {
        string inScheme
        string notation
        Date geldigTot
        string value
    }
      class Grondwaterput {
        double diepte
    }
      class Installatie {
        string uuid
        string uri
        ISystem[] heeftSubSysteem (FK)
        string benaming
        Date aangemaaktOp
        Date geldigVan
        Date geldigTot
        ExploitatieLocatie locatie (FK)
        ISystem afgeleidVan (FK)
        InstallatieIdentifier[] identifiers (FK)
    }
      class InstallatieIdentifier {
        string inScheme
        string notation
        Date geldigTot
        string value
    }
      class Lozingspunt {
        double diepte
    }
      class Meetpunt {
        string uuid
        string uri
        string benaming
        string type
        Date aangemaaktOp
        Date geldigVan
        Date geldigTot
        string geometrie
        MeetpuntIdentifier[] identifiers (FK)
    }
      class MeetpuntIdentifier {
        string inScheme
        string notation
        Date geldigTot
        string value
    }
      class Observatie {
        string uuid
        string uri
        ISystem hasFeatureOfInterest (FK)
    }
      class Onttrekkingspunt {
        string uuid
        string uri
        string benaming
        string type
        Date geldigVan
        Date geldigTot
        Date aangemaaktOp
        ExploitatieLocatie locatie (FK)
        string geometrie
    }
      class Proces {
        string uuid
        string uri
        Date aangemaaktOp
        string benaming
        Date geldigVan
        Date geldigTot
        ExploitatieLocatie locatie (FK)
        ISystem[] geimplenteerdDoor (FK)
        Procedure type
        ProcesVariabele[] heeftInvoer (FK)
        ProcesVariabele[] heeftUitvoer (FK)
        ISystem onderdeelVan (FK)
        ProcesIdentifier[] identifiers (FK)
    }
      class ProcesIdentifier {
        string inScheme
        string notation
        Date geldigTot
        string value
    }
      class ProcesVariabele {
        string uuid
        string uri
        Date geldigVan
        Date aangemaaktOp
        Date geldigTot
        string benaming
        string type
        number eenheid
        number waarde
    }
      class Schouw {
        double diameter
        double hoogte
    }
      class ISystem {
        <<interface>>
        string uuid
        string uri
        ExploitatieLocatie locatieId
    }
    class IAgent {
        <<interface>>
        string uuid
        string uri
    }
    class ISpatialObject {
        <<interface>>
        string uuid
        string uri
    }
    class Procedure {
        <<enumerable>>
        VERWERKING
        TRANSPORT
        VERBRUIK
        EMISSIE
    }
    Proces --> Procedure : type

    Emissiepunt <|-- AbstractEmissiepunt
    Emissiepunt <|-- Schouw
    Onttrekkingspunt <|-- Grondwaterput
    Emissiepunt <|-- Lozingspunt
    ISystem <|.. Apparaat
    ISystem <|.. Emissiepunt
    ISystem <|.. Installatie
    ISystem <|.. Meetpunt
    ISystem <|.. Onttrekkingspunt
    ISystem <|.. Proces
    IAgent <|.. Apparaat
    IAgent <|.. Emissiepunt
    IAgent <|.. Exploitant
    IAgent <|.. Installatie
    IAgent <|.. Meetpunt
    IAgent <|.. Onttrekkingspunt
    IAgent <|.. Proces
    ISpatialObject <|.. Apparaat
    ISpatialObject <|.. Emissiepunt
    ISpatialObject <|.. Meetpunt
    ISpatialObject <|.. Onttrekkingspunt
    Proces --> ExploitatieLocatie : locatie
    Proces --> ISystem : geïmplementeerd door
    Proces --> ProcesVariabele : heeft invoer
    Proces --> ProcesVariabele : heeft uitvoer
    Proces --> ISystem : onderdeel van
    ExploitatieLocatie --> IAgent : toegewezen aan
    ExploitatieLocatie --> ExploitatieLocatie : afgeleid van
    Installatie --> ISystem : heeft subsysteem
    Installatie --> ExploitatieLocatie : locatie
    Installatie --> ISystem : afgeleid van
    Emissiepunt --> ExploitatieLocatie : locatie
    Onttrekkingspunt --> ExploitatieLocatie : locatie
    Apparaat --> ExploitatieLocatie : locatie
    Observatie --> ISystem : hasFeatureOfInterest
    Exploitant --> ExploitantContactpersoon : type
    ExploitantContactpersoon --> IAgent : exploitant
    Proces --> ProcesIdentifier : identifiers
    ExploitatieLocatie --> ExploitatieLocatieIdentifier : identifiers
    Installatie --> InstallatieIdentifier : identifiers
    Meetpunt --> MeetpuntIdentifier : identifiers
