---
config:
  theme: default
  layout: elk
  elk:
    nodePlacementStrategy: SIMPLE
---
%% Generated by ODDToolkit
classDiagram
    direction TB
	%% https://data.riepr.omgeving.vlaanderen.be/ns/riepr#Emissiepunt
	class Emissiepunt:::system {
	  +String uuid
	  String uid
	  +Date geldigVan
	  Date geldigTot
	  String benaming
	  Status status
	  ExploitatieLocatie locatie
	  String geometrie
	  String type
	  +DateTime aangemaaktOp
	  ExterneIdentificator[] identifier
	  DateTime aangepastOp
	}
	%% http://www.w3.org/ns/adms#status
	Emissiepunt --> Status : status
	%% http://www.w3.org/ns/sosa/isHostedBy
	Emissiepunt --> ExploitatieLocatie : locatie
	%% http://www.w3.org/ns/adms#identifier
	Emissiepunt --> ExterneIdentificator : identifier
	Systeem <|-- Emissiepunt
	%% https://data.riepr.omgeving.vlaanderen.be/ns/riepr#Lozing
	class Lozing:::result {
	  +String uuid
	  String uid
	}
	Result <|-- Lozing
	%% https://data.riepr.omgeving.vlaanderen.be/ns/riepr#Contactpersoon
	class Contactpersoon {
	  +String uuid
	  String uid
	  +DateTime aangemaaktOp
	  +Date geldigVan
	  String[] hasRole
	  String[] name
	  String benaming
	  String[] telefoonnummer
	  String[] email
	  String beschrijving
	  Date geldigTot
	  DateTime aangepastOp
	}
	%% https://data.riepr.omgeving.vlaanderen.be/ns/riepr#Exploitatie
	class Exploitatie {
	  +String uuid
	  String uid
	  +Date geldigVan
	  Status status
	  Systeem[] inzetbaarSysteem
	  Proces geimplementeerdDoor
	  DateTime aangepastOp
	  ExploitatieLocatie locatie
	  +DateTime aangemaaktOp
	  Contactpersoon[] member
	  ExterneIdentificator[] identifier
	  Date geldigTot
	  String benaming
	}
	%% http://www.w3.org/ns/adms#status
	Exploitatie --> Status : status
	%% http://www.w3.org/ns/ssn/deployedSystem
	Exploitatie --> Systeem : inzetbaarSysteem
	%% http://www.w3.org/ns/ssn/implementedBy
	Exploitatie --> Proces : geimplementeerdDoor
	%% http://www.w3.org/ns/ssn/deployedOnPlatform
	Exploitatie --> ExploitatieLocatie : locatie
	%% http://xmlns.com/foaf/0.1/member
	Exploitatie --> Contactpersoon : member
	%% http://www.w3.org/ns/adms#identifier
	Exploitatie --> ExterneIdentificator : identifier
	%% https://data.riepr.omgeving.vlaanderen.be/ns/riepr#Exploitant
	class Exploitant {
	  +String uuid
	  String uid
	  String benaming
	  String type
	  Contactpersoon[] member
	  +DateTime aangemaaktOp
	  Adres adres
	  +Date geldigVan
	  Date geldigTot
	  DateTime aangepastOp
	}
	%% http://xmlns.com/foaf/0.1/member
	Exploitant --> Contactpersoon : member
	%% http://www.w3.org/ns/locn#address
	Exploitant --> Adres : adres
	%% https://data.riepr.omgeving.vlaanderen.be/ns/riepr#Meetpunt
	class Meetpunt:::system {
	  +String uuid
	  String uid
	  Status status
	  String type
	  +Date geldigVan
	  String geometrie
	  +DateTime aangemaaktOp
	  Date geldigTot
	  String benaming
	  DateTime aangepastOp
	  ExterneIdentificator[] identifier
	}
	%% http://www.w3.org/ns/adms#status
	Meetpunt --> Status : status
	%% http://www.w3.org/ns/adms#identifier
	Meetpunt --> ExterneIdentificator : identifier
	Systeem <|-- Meetpunt
	%% https://data.riepr.omgeving.vlaanderen.be/ns/riepr#ProcesVariabele
	class ProcesVariabele {
	  +String uuid
	  String uid
	  String type
	  String waarde
	  String benaming
	  String eenheid
	}
	%% https://data.riepr.omgeving.vlaanderen.be/ns/riepr#Schouw
	class Schouw:::system {
	  String hoogte
	  String diameter
	}
	Emissiepunt <|-- Schouw
	%% https://data.riepr.omgeving.vlaanderen.be/ns/riepr#Emissie
	class Emissie:::result {
	  +String uuid
	  String uid
	}
	Result <|-- Emissie
	%% https://data.riepr.omgeving.vlaanderen.be/ns/riepr#Observatie
	class Observatie {
	  +String uuid
	  String uid
	  Result hasResult
	  Meetpunt hasFeatureOfInterest
	}
	%% http://www.w3.org/ns/sosa/hasResult
	Observatie --> Result : hasResult
	%% http://www.w3.org/ns/sosa/hasFeatureOfInterest
	Observatie --> Meetpunt : hasFeatureOfInterest
	%% https://data.riepr.omgeving.vlaanderen.be/ns/riepr#AbstractEmissiepunt
	class AbstractEmissiepunt:::system {
	}
	Emissiepunt <|-- AbstractEmissiepunt
	%% https://data.riepr.omgeving.vlaanderen.be/ns/riepr#Installatie
	class Installatie:::system {
	  +String uuid
	  String uid
	  Status status
	  Installatie revisieVan
	  ExploitatieLocatie locatie
	  +DateTime aangemaaktOp
	  ExterneIdentificator[] identifier
	  DateTime aangepastOp
	  +Date geldigVan
	  Date geldigTot
	  String benaming
	  Proces[] implementeert
	  Systeem[] heeftSubSysteem
	}
	%% http://www.w3.org/ns/adms#status
	Installatie --> Status : status
	%% http://www.w3.org/ns/prov#wasRevisionOf
	Installatie --> Installatie : revisieVan
	%% http://www.w3.org/ns/sosa/isHostedBy
	Installatie --> ExploitatieLocatie : locatie
	%% http://www.w3.org/ns/adms#identifier
	Installatie --> ExterneIdentificator : identifier
	%% http://www.w3.org/ns/ssn/implements
	Installatie --> Proces : implementeert
	%% http://www.w3.org/ns/ssn/hasSubSystem
	Installatie --> Systeem : heeftSubSysteem
	Systeem <|-- Installatie
	%% https://data.riepr.omgeving.vlaanderen.be/ns/riepr#Onttrekkingspunt
	class Onttrekkingspunt:::system {
	  +String uuid
	  String uid
	  ExterneIdentificator[] identifier
	  ExploitatieLocatie locatie
	  DateTime aangepastOp
	  +Date geldigVan
	  Status status
	  String geometrie
	  String benaming
	  +DateTime aangemaaktOp
	  String type
	  Date geldigTot
	}
	%% http://www.w3.org/ns/adms#identifier
	Onttrekkingspunt --> ExterneIdentificator : identifier
	%% http://www.w3.org/ns/sosa/isHostedBy
	Onttrekkingspunt --> ExploitatieLocatie : locatie
	%% http://www.w3.org/ns/adms#status
	Onttrekkingspunt --> Status : status
	Systeem <|-- Onttrekkingspunt
	%% https://data.riepr.omgeving.vlaanderen.be/ns/riepr#Proces
	class Proces:::procedure {
	  +String uuid
	  String uid
	  Proces revisieVan
	  ProcesVariabele[] heeftUitvoer
	  Systeem geimplementeerdDoor
	  +DateTime aangemaaktOp
	  +Date geldigVan
	  Status status
	  Procedure type
	  DateTime aangepastOp
	  Date geldigTot
	  Proces[] onderdeelVan
	  ProcesVariabele[] heeftInvoer
	  String benaming
	}
	%% http://www.w3.org/ns/prov#wasRevisionOf
	Proces --> Proces : revisieVan
	%% http://purl.org/net/p-plan#hasOutputVar
	Proces --> ProcesVariabele : heeftUitvoer
	%% http://www.w3.org/ns/ssn/implementedBy
	Proces --> Systeem : geimplementeerdDoor
	%% http://www.w3.org/ns/adms#status
	Proces --> Status : status
	%% http://purl.org/dc/terms/type
	Proces --> Procedure : type
	%% http://purl.org/net/p-plan#isStepOfPlan
	Proces --> Proces : onderdeelVan
	%% http://purl.org/net/p-plan#hasInputVar
	Proces --> ProcesVariabele : heeftInvoer
	%% https://data.riepr.omgeving.vlaanderen.be/ns/riepr#ExploitatieLocatie
	class ExploitatieLocatie {
	  +String uuid
	  String uid
	  ExploitatieLocatie revisieVan
	  Date geldigTot
	  +Date geldigVan
	  Exploitant toegewezenAan
	  String[] beinvloedDoor
	  +DateTime aangemaaktOp
	  String primaireBron
	  String geometrie
	  Adres adres
	  ExterneIdentificator[] identifier
	  String benaming
	  DateTime aangepastOp
	  +String sameAs
	}
	%% http://www.w3.org/ns/prov#wasRevisionOf
	ExploitatieLocatie --> ExploitatieLocatie : revisieVan
	%% http://www.w3.org/ns/prov#wasAttributedTo
	ExploitatieLocatie --> Exploitant : toegewezenAan
	%% http://www.w3.org/ns/locn#address
	ExploitatieLocatie --> Adres : adres
	%% http://www.w3.org/ns/adms#identifier
	ExploitatieLocatie --> ExterneIdentificator : identifier
	%% https://data.riepr.omgeving.vlaanderen.be/ns/riepr#Grondwaterput
	class Grondwaterput:::system {
	  String diepte
	}
	Onttrekkingspunt <|-- Grondwaterput
	%% https://data.riepr.omgeving.vlaanderen.be/ns/riepr#Lozingspunt
	class Lozingspunt:::system {
	  String diepte
	}
	Emissiepunt <|-- Lozingspunt
	%% http://www.w3.org/ns/adms#Identifier
	class ExterneIdentificator {
	  String schema
	  +String uuid
	  String uid
	}
	%% http://www.w3.org/ns/locn#Address
	class Adres {
	  String stad
	  String straat
	  String postcode
	  +String uuid
	  String uid
	}
	%% http://www.w3.org/ns/ssn/System
	class Systeem:::system {
	  <<interface>>
	  +String uuid
	  String uid
	}
	%% http://www.w3.org/ns/sosa/Result
	class Result:::result {
	  <<interface>>
	  +String uuid
	  String uid
	}
	%% http://www.w3.org/ns/adms#Status
	class Status {
	  <<enumerable>>
	}
	%% http://www.w3.org/ns/sosa/Procedure
	class Procedure:::procedure {
	  <<enumerable>>
	  VERBRUIK
	  EMISSIE
	  TRANSPORT
	  MEET
	  VERWERKING
	}
	%% http://www.w3.org/ns/ssn/implementedBy
	Procedure --> Systeem : geimplementeerdDoor
	classDef system fill:#ffeecc,stroke:#000000,
	classDef procedure fill:#ccffcc,stroke:#000000,
	classDef result fill:#ccccff,stroke:#000000,
	classDef exploitatie fill:#ffcccc,stroke:#000000,
	