classDiagram
    %% Generated from RDF CSV

    class geo_Geometry {
        rdf_type : string
    }

    class geo_Geometry 

    class org_Organization {
        rdf_type : string
    }

    class org_Organization 

    class p-plan_Plan {
        dct_created : xsd:dateTime
        dct_issued : xsd:date
        dct_valid : xsd:date
        rdf_type : string
    }

    class p-plan_Plan 

    class p-plan_Step {
        p-plan_isPrecededBy : string
        p-plan_isStepOfPlan : string
        prov_wasAttributedTo : string
        rdf_type : string
    }

    class p-plan_Step 

    class p-plan_Variable {
        p-plan_isInputVarOf : string
        p-plan_isOutputVarOf : string
        p-plan_isVariableOfPlan : string
        rdf_type : string
    }

    class p-plan_Variable 

    class prov_Activity {
        p-plan_correspondsToStep : string
        prov_endedAtTime : xsd:dateTime
        prov_startedAtTime : xsd:dateTime
        prov_used : string
        prov_wasAssociatedWith : string
        rdf_type : string
    }

    class prov_Activity 

    class prov_Attribution {
        prov_agent : string
        prov_hadPlan : string
        prov_hadRole : string
        rdf_type : string
    }

    class prov_Attribution 

    class prov_Entity {
        p-plan_correspondsToVariable : string
        prov_wasDerivedFrom : string
        prov_wasGeneratedBy : string
        rdf_type : string
    }

    class prov_Entity 

    class prov_Role {
        rdf_type : string
    }

    class prov_Role 

    class sosa_Deployment {
        rdf_type : string
        sosa_deployedAsset : string
        sosa_deployedOnPlatform : string
        sosa_endTime : xsd:dateTime
        sosa_startTime : xsd:dateTime
    }

    class sosa_Deployment 

    class sosa_Observation {
        rdf_type : string
        sosa_hasFeatureOfInterest : string
        sosa_hasResult : string
        sosa_observedProperty : string
        sosa_phenomenonTime : string
    }

    class sosa_Observation 

    class sosa_Platform {
        geo_hasGeometry : string
        prov_qualifiedAttribution : string
        prov_wasAttributedTo : string
        rdf_type : string
    }

    class sosa_Platform 

    class sosa_Result {
        qudt_unit : string
        rdf_type : string
        rdf_value : xsd:integer
    }

    class sosa_Result 

    class sosa_System {
        adms_status : string
        dct_created : xsd:dateTime
        dct_issued : xsd:date
        dct_valid : xsd:date
        geo_hasGeometry : string
        rdf_type : string
    }

    class sosa_System 

    class time_Instant {
        rdf_type : string
        time_inXSDDateTime : xsd:dateTime
    }

    class time_Instant 

    class time_Interval {
        rdf_type : string
        time_hasBeginning : string
        time_hasEnd : string
    }

    class time_Interval 

    class string
    class string datatype
    class integer
    class integer datatype
    class boolean
    class boolean datatype
    class date
    class date datatype
    %% Object properties
    p-plan_Step --> p-plan_Plan : <<objectProperty>> p-plan_isStepOfPlan
    p-plan_Step --> sosa_System : <<objectProperty>> prov_wasAttributedTo
    p-plan_Variable --> p-plan_Plan : <<objectProperty>> p-plan_isVariableOfPlan
    p-plan_Variable --> p-plan_Step : <<objectProperty>> p-plan_isInputVarOf
    p-plan_Variable --> p-plan_Step : <<objectProperty>> p-plan_isOutputVarOf
    prov_Activity --> p-plan_Step : <<objectProperty>> p-plan_correspondsToStep
    prov_Activity --> prov_Entity : <<objectProperty>> prov_used
    prov_Activity --> sosa_System : <<objectProperty>> prov_wasAssociatedWith
    prov_Attribution --> org_Organization : <<objectProperty>> prov_agent
    prov_Attribution --> p-plan_Plan : <<objectProperty>> prov_hadPlan
    prov_Attribution --> prov_Role : <<objectProperty>> prov_hadRole
    prov_Entity --> p-plan_Variable : <<objectProperty>> p-plan_correspondsToVariable
    prov_Entity --> prov_Activity : <<objectProperty>> prov_wasGeneratedBy
    sosa_Deployment --> sosa_Platform : <<objectProperty>> sosa_deployedOnPlatform
    sosa_Deployment --> sosa_System : <<objectProperty>> sosa_deployedAsset
    sosa_Observation --> prov_Entity : <<objectProperty>> sosa_hasFeatureOfInterest
    sosa_Observation --> sosa_Result : <<objectProperty>> sosa_hasResult
    sosa_Observation --> time_Interval : <<objectProperty>> sosa_phenomenonTime
    sosa_Platform --> geo_Geometry : <<objectProperty>> geo_hasGeometry
    sosa_Platform --> org_Organization : <<objectProperty>> prov_wasAttributedTo
    sosa_Platform --> prov_Attribution : <<objectProperty>> prov_qualifiedAttribution
    sosa_System --> geo_Geometry : <<objectProperty>> geo_hasGeometry
    time_Interval --> time_Instant : <<objectProperty>> time_hasBeginning
    time_Interval --> time_Instant : <<objectProperty>> time_hasEnd
