---
config:
  theme: default
  layout: elk
  elk:
    nodePlacementStrategy: SIMPLE
---
%% Generated by ODDToolkit
classDiagram

	%% http://www.w3.org/ns/adms#Identifier
	class ExterneIdentificator {
	  +String uuid
	  String uri
	  String notatie
	  String notatie_datatype
	  String schemaAgency
	  String notatietype
	  String notatietype_datatype
	}
	%% http://www.w3.org/ns/locn#Address
	class Adres {
	  +String uuid
	  String uri
	  String fullAddress
	  String locatorDesignator
	}
	%% http://www.w3.org/ns/org#Organization
	class Organisatie {
	  +String uuid
	  String uri
	}
	%% http://www.w3.org/ns/org#Site
	class Vestiging {
	  +String uuid
	  String uri
	}
	%% https://data.riepr.omgeving.vlaanderen.be/ns/riepr#Aangifte
	class Aangifte {
	  +String id
	  String uuid
	  String uri
	  Date aangemaaktOp
	  Aangiftebundel onderdeelVan
	  Date aangepastOp
	  Exploitatie[] onderwerp
	  String vlaanderenId
	  String informatieclassificatie
	}
	%% http://purl.org/dc/terms/isPartOf
	Aangifte --> Aangiftebundel : onderdeelVan
	%% http://purl.org/dc/terms/subject
	Aangifte --> Exploitatie : onderwerp
	%% https://data.riepr.omgeving.vlaanderen.be/ns/riepr#Aangiftebundel
	class Aangiftebundel {
	  +String id
	  String uuid
	  String uri
	  Date aangemaaktOp
	  Exploitant creator
	  Date aangepastOp
	  String type
	  Status status
	  String vlaanderenId
	}
	%% http://purl.org/dc/terms/creator
	Aangiftebundel --> Exploitant : creator
	%% http://www.w3.org/ns/adms#status
	Aangiftebundel --> Status : status
	%% https://data.riepr.omgeving.vlaanderen.be/ns/riepr#Contactpersoon
	class Contactpersoon {
	  +String id
	  String uuid
	  String uri
	  DateTime aangemaaktOp
	  String geldigVan
	  DateTime aangepastOp
	  String type
	  String beschrijving
	  Exploitatie hasTarget
	  String email
	  String[] naam
	  String telefoonnummer
	}
	%% http://www.w3.org/ns/oa#hasTarget
	Contactpersoon --> Exploitatie : hasTarget
	%% https://data.riepr.omgeving.vlaanderen.be/ns/riepr#Emissie
	class Emissie {
	  +String uuid
	  String uri
	  Proces[] wasDerivedFrom
	  Observatie[] isFeatureOfInterestOf
	}
	%% http://www.w3.org/ns/prov#wasDerivedFrom
	Emissie --> Proces : wasDerivedFrom
	%% http://www.w3.org/ns/sosa/isFeatureOfInterestOf
	Emissie --> Observatie : isFeatureOfInterestOf
	Gebeurtenis <|-- Emissie
	%% https://data.riepr.omgeving.vlaanderen.be/ns/riepr#Emissiepunt
	class Emissiepunt:::system {
	  +String id
	  String uuid
	  String uri
	  DateTime aangemaaktOp
	  Date geldigVan
	  Date geldigTot
	  DateTime aangepastOp
	  String type
	  String geometrie
	  String benaming
	  ExterneIdentificator[] identifier
	  Status status
	  Exploitatie[] hasDeployment
	  Systeemeigenschap[] heeftEigenschap
	  Systeem[] heeftSubSysteem
	  Aangifte aangifte
	  Date inGebruikTot
	  Date inGebruikVanaf
	}
	%% http://www.w3.org/ns/adms#identifier
	Emissiepunt --> ExterneIdentificator : identifier
	%% http://www.w3.org/ns/adms#status
	Emissiepunt --> Status : status
	%% http://www.w3.org/ns/ssn/hasDeployment
	Emissiepunt --> Exploitatie : hasDeployment
	%% http://www.w3.org/ns/ssn/hasProperty
	Emissiepunt --> Systeemeigenschap : heeftEigenschap
	%% http://www.w3.org/ns/ssn/hasSubSystem
	Emissiepunt --> Systeem : heeftSubSysteem
	%% https://data.riepr.omgeving.vlaanderen.be/ns/riepr#aangifte
	Emissiepunt --> Aangifte : aangifte
	Systeem <|-- Emissiepunt
	%% https://data.riepr.omgeving.vlaanderen.be/ns/riepr#Exploitant
	class Exploitant:::exploitant {
	  +String uuid
	  String uri
	  DateTime aangemaaktOp
	  DateTime aangepastOp
	  String benaming
	  Adres adres
	  Organisatie primaireBron
	}
	%% http://www.w3.org/ns/locn#address
	Exploitant --> Adres : adres
	%% http://www.w3.org/ns/prov#hadPrimarySource
	Exploitant --> Organisatie : primaireBron
	%% https://data.riepr.omgeving.vlaanderen.be/ns/riepr#Exploitatie
	class Exploitatie:::exploitant {
	  +String id
	  String uuid
	  String uri
	  DateTime aangemaaktOp
	  Date geldigVan
	  Date geldigTot
	  DateTime aangepastOp
	  String benaming
	  ExterneIdentificator[] identifier
	  Status status
	  String classification
	  Exploitatielocatie locatie
	  Systeem[] systemen
	  Proces implementeertProces
	  Aangifte aangifte
	}
	%% http://www.w3.org/ns/adms#identifier
	Exploitatie --> ExterneIdentificator : identifier
	%% http://www.w3.org/ns/adms#status
	Exploitatie --> Status : status
	%% http://www.w3.org/ns/ssn/deployedOnPlatform
	Exploitatie --> Exploitatielocatie : locatie
	%% http://www.w3.org/ns/ssn/deployedSystem
	Exploitatie --> Systeem : systemen
	%% http://www.w3.org/ns/ssn/implements
	Exploitatie --> Proces : implementeertProces
	%% https://data.riepr.omgeving.vlaanderen.be/ns/riepr#aangifte
	Exploitatie --> Aangifte : aangifte
	%% https://data.riepr.omgeving.vlaanderen.be/ns/riepr#Exploitatielocatie
	class Exploitatielocatie {
	  +String id
	  String uuid
	  String uri
	  DateTime aangemaaktOp
	  Date geldigVan
	  Date geldigTot
	  DateTime aangepastOp
	  String geometrie
	  String beschrijving
	  String benaming
	  ExterneIdentificator[] identifier
	  Adres adres
	  Vestiging primaireBron
	  Exploitant toegewezenAan
	  Exploitatie[] inDeployment
	  Aangifte aangifte
	}
	%% http://www.w3.org/ns/adms#identifier
	Exploitatielocatie --> ExterneIdentificator : identifier
	%% http://www.w3.org/ns/locn#address
	Exploitatielocatie --> Adres : adres
	%% http://www.w3.org/ns/prov#hadPrimarySource
	Exploitatielocatie --> Vestiging : primaireBron
	%% http://www.w3.org/ns/prov#wasAttributedTo
	Exploitatielocatie --> Exploitant : toegewezenAan
	%% http://www.w3.org/ns/ssn/inDeployment
	Exploitatielocatie --> Exploitatie : inDeployment
	%% https://data.riepr.omgeving.vlaanderen.be/ns/riepr#aangifte
	Exploitatielocatie --> Aangifte : aangifte
	%% https://data.riepr.omgeving.vlaanderen.be/ns/riepr#Filter
	class Filter:::system {
	  +String uuid
	  String uri
	  DateTime aangemaaktOp
	  Date geldigVan
	  Date geldigTot
	  DateTime aangepastOp
	  String type
	  String geometrie
	  String benaming
	  ExterneIdentificator[] identifier
	  Status status
	  Exploitatie[] hasDeployment
	  Systeemeigenschap[] heeftEigenschap
	  Aangifte aangifte
	  Date inGebruikTot
	  Date inGebruikVanaf
	}
	%% http://www.w3.org/ns/adms#identifier
	Filter --> ExterneIdentificator : identifier
	%% http://www.w3.org/ns/adms#status
	Filter --> Status : status
	%% http://www.w3.org/ns/ssn/hasDeployment
	Filter --> Exploitatie : hasDeployment
	%% http://www.w3.org/ns/ssn/hasProperty
	Filter --> Systeemeigenschap : heeftEigenschap
	%% https://data.riepr.omgeving.vlaanderen.be/ns/riepr#aangifte
	Filter --> Aangifte : aangifte
	Systeem <|-- Filter
	%% https://data.riepr.omgeving.vlaanderen.be/ns/riepr#Installatie
	class Installatie:::system {
	  +String id
	  String uuid
	  String uri
	  DateTime aangemaaktOp
	  Date geldigVan
	  Date geldigTot
	  DateTime aangepastOp
	  String type
	  String geometrie
	  String beschrijving
	  String benaming
	  ExterneIdentificator[] identifier
	  Status status
	  Exploitatie[] hasDeployment
	  Systeemeigenschap[] heeftEigenschap
	  Systeem[] heeftSubSysteem
	  Aangifte aangifte
	  Date inGebruikTot
	  Date inGebruikVanaf
	  String[] ingediend
	}
	%% http://www.w3.org/ns/adms#identifier
	Installatie --> ExterneIdentificator : identifier
	%% http://www.w3.org/ns/adms#status
	Installatie --> Status : status
	%% http://www.w3.org/ns/ssn/hasDeployment
	Installatie --> Exploitatie : hasDeployment
	%% http://www.w3.org/ns/ssn/hasProperty
	Installatie --> Systeemeigenschap : heeftEigenschap
	%% http://www.w3.org/ns/ssn/hasSubSystem
	Installatie --> Systeem : heeftSubSysteem
	%% https://data.riepr.omgeving.vlaanderen.be/ns/riepr#aangifte
	Installatie --> Aangifte : aangifte
	Systeem <|-- Installatie
	%% https://data.riepr.omgeving.vlaanderen.be/ns/riepr#Meetpunt
	class Meetpunt:::system {
	  +String id
	  String uuid
	  String uri
	  DateTime aangemaaktOp
	  Date geldigVan
	  Date geldigTot
	  DateTime aangepastOp
	  String type
	  String geometrie
	  String benaming
	  ExterneIdentificator[] identifier
	  Status status
	  Exploitatie[] hasDeployment
	  Systeemeigenschap[] heeftEigenschap
	  Filter[] heeftSubSysteem
	  Aangifte aangifte
	  Date inGebruikTot
	  Date inGebruikVanaf
	}
	%% http://www.w3.org/ns/adms#identifier
	Meetpunt --> ExterneIdentificator : identifier
	%% http://www.w3.org/ns/adms#status
	Meetpunt --> Status : status
	%% http://www.w3.org/ns/ssn/hasDeployment
	Meetpunt --> Exploitatie : hasDeployment
	%% http://www.w3.org/ns/ssn/hasProperty
	Meetpunt --> Systeemeigenschap : heeftEigenschap
	%% http://www.w3.org/ns/ssn/hasSubSystem
	Meetpunt --> Filter : heeftSubSysteem
	%% https://data.riepr.omgeving.vlaanderen.be/ns/riepr#aangifte
	Meetpunt --> Aangifte : aangifte
	Systeem <|-- Meetpunt
	%% https://data.riepr.omgeving.vlaanderen.be/ns/riepr#Observatie
	class Observatie {
	  +String id
	  String uuid
	  String uri
	  DateTime aangemaaktOp
	  Gebeurtenis betrekkingTot
	  Resultaat heeftResultaat
	  ObservatieVerzameling isMemberOf
	  Systeem madeBySensor
	  String eigenschap
	  String phenomenonTime
	  DateTime resultTime
	  String usedProcedure
	  Aangifte aangifte
	}
	%% http://www.w3.org/ns/sosa/hasFeatureOfInterest
	Observatie --> Gebeurtenis : betrekkingTot
	%% http://www.w3.org/ns/sosa/hasResult
	Observatie --> Resultaat : heeftResultaat
	%% http://www.w3.org/ns/sosa/isMemberOf
	Observatie --> ObservatieVerzameling : isMemberOf
	%% http://www.w3.org/ns/sosa/madeBySensor
	Observatie --> Systeem : madeBySensor
	%% https://data.riepr.omgeving.vlaanderen.be/ns/riepr#aangifte
	Observatie --> Aangifte : aangifte
	%% https://data.riepr.omgeving.vlaanderen.be/ns/riepr#ObservatieVerzameling
	class ObservatieVerzameling {
	  +String id
	  String uuid
	  String uri
	  DateTime aangemaaktOp
	  Gebeurtenis betrekkingTot
	  Observatie[] hasMember
	  Aangifte aangifte
	}
	%% http://www.w3.org/ns/sosa/hasFeatureOfInterest
	ObservatieVerzameling --> Gebeurtenis : betrekkingTot
	%% http://www.w3.org/ns/sosa/hasMember
	ObservatieVerzameling --> Observatie : hasMember
	%% https://data.riepr.omgeving.vlaanderen.be/ns/riepr#aangifte
	ObservatieVerzameling --> Aangifte : aangifte
	%% https://data.riepr.omgeving.vlaanderen.be/ns/riepr#Onttrekking
	class Onttrekking {
	  +String uuid
	  String uri
	  Proces[] wasDerivedFrom
	  Observatie[] isFeatureOfInterestOf
	}
	%% http://www.w3.org/ns/prov#wasDerivedFrom
	Onttrekking --> Proces : wasDerivedFrom
	%% http://www.w3.org/ns/sosa/isFeatureOfInterestOf
	Onttrekking --> Observatie : isFeatureOfInterestOf
	Gebeurtenis <|-- Onttrekking
	%% https://data.riepr.omgeving.vlaanderen.be/ns/riepr#Onttrekkingspunt
	class Onttrekkingspunt:::system {
	  +String id
	  String uuid
	  String uri
	  DateTime aangemaaktOp
	  Date geldigVan
	  Date geldigTot
	  DateTime aangepastOp
	  String type
	  String geometrie
	  String benaming
	  ExterneIdentificator[] identifier
	  Status status
	  Exploitatie[] hasDeployment
	  Systeemeigenschap[] heeftEigenschap
	  Filter[] heeftSubSysteem
	  Aangifte aangifte
	  Date inGebruikTot
	  Date inGebruikVanaf
	}
	%% http://www.w3.org/ns/adms#identifier
	Onttrekkingspunt --> ExterneIdentificator : identifier
	%% http://www.w3.org/ns/adms#status
	Onttrekkingspunt --> Status : status
	%% http://www.w3.org/ns/ssn/hasDeployment
	Onttrekkingspunt --> Exploitatie : hasDeployment
	%% http://www.w3.org/ns/ssn/hasProperty
	Onttrekkingspunt --> Systeemeigenschap : heeftEigenschap
	%% http://www.w3.org/ns/ssn/hasSubSystem
	Onttrekkingspunt --> Filter : heeftSubSysteem
	%% https://data.riepr.omgeving.vlaanderen.be/ns/riepr#aangifte
	Onttrekkingspunt --> Aangifte : aangifte
	Systeem <|-- Onttrekkingspunt
	%% https://data.riepr.omgeving.vlaanderen.be/ns/riepr#Proces
	class Proces:::procedure {
	  +String id
	  String uuid
	  String uri
	  DateTime aangemaaktOp
	  Date geldigVan
	  Date geldigTot
	  DateTime aangepastOp
	  Procedure type
	  Procesvariabele[] heeftInvoer
	  Procesvariabele[] heeftUitvoer
	  Proces[] hasStep
	  Proces[] volgtOp
	  Proces onderdeelVan
	  String beschrijving
	  String benaming
	  ExterneIdentificator[] identifier
	  Systeem systeem
	  Aangifte aangifte
	  Rubriek[] rubriek
	}
	%% http://purl.org/dc/terms/type
	Proces --> Procedure : type
	%% http://purl.org/net/p-plan#hasInputVar
	Proces --> Procesvariabele : heeftInvoer
	%% http://purl.org/net/p-plan#hasOutputVar
	Proces --> Procesvariabele : heeftUitvoer
	%% http://purl.org/net/p-plan#hasStep
	Proces --> Proces : hasStep
	%% http://purl.org/net/p-plan#isPrecededBy
	Proces --> Proces : volgtOp
	%% http://purl.org/net/p-plan#isStepOfPlan
	Proces --> Proces : onderdeelVan
	%% http://www.w3.org/ns/adms#identifier
	Proces --> ExterneIdentificator : identifier
	%% http://www.w3.org/ns/ssn/implementedBy
	Proces --> Systeem : systeem
	%% https://data.riepr.omgeving.vlaanderen.be/ns/riepr#aangifte
	Proces --> Aangifte : aangifte
	%% https://data.riepr.omgeving.vlaanderen.be/ns/riepr#rubriek
	Proces --> Rubriek : rubriek
	%% https://data.riepr.omgeving.vlaanderen.be/ns/riepr#Procesvariabele
	class Procesvariabele:::procedure {
	  +String uuid
	  String uri
	  String type
	  Proces[] isInputVarOf
	  String eenheid
	  Decimal waarde
	  String benaming
	}
	%% http://purl.org/net/p-plan#isInputVarOf
	Procesvariabele --> Proces : isInputVarOf
	%% https://data.riepr.omgeving.vlaanderen.be/ns/riepr#Resultaat
	class Resultaat:::result {
	  +String uuid
	  String uri
	  String eenheid
	  Decimal waarde
	  String beschrijving
	}
	%% https://data.riepr.omgeving.vlaanderen.be/ns/riepr#Rubriek
	class Rubriek {
	  +String uuid
	  String uri
	  String type
	  String definition
	  String notatie
	  String notatie_datatype
	  String primaireBron
	}
	%% https://data.riepr.omgeving.vlaanderen.be/ns/riepr#Systeemeigenschap
	class Systeemeigenschap {
	  +String uuid
	  String uri
	  String type
	  String eenheid
	  String benaming
	  String value
	  String datatype
	  String datatype_datatype
	  Rubriek parameter
	}
	%% https://data.riepr.omgeving.vlaanderen.be/ns/riepr#parameter
	Systeemeigenschap --> Rubriek : parameter
	%% https://data.riepr.omgeving.vlaanderen.be/ns/riepr#Uitwisselpunt
	class Uitwisselpunt:::system {
	  +String id
	  String uuid
	  String uri
	  DateTime aangemaaktOp
	  Date geldigVan
	  Date geldigTot
	  DateTime aangepastOp
	  String type
	  String geometrie
	  String benaming
	  ExterneIdentificator[] identifier
	  Status status
	  Exploitatie[] hasDeployment
	  Systeemeigenschap[] heeftEigenschap
	  Filter[] heeftSubSysteem
	  Aangifte aangifte
	  Date inGebruikTot
	  Date inGebruikVanaf
	}
	%% http://www.w3.org/ns/adms#identifier
	Uitwisselpunt --> ExterneIdentificator : identifier
	%% http://www.w3.org/ns/adms#status
	Uitwisselpunt --> Status : status
	%% http://www.w3.org/ns/ssn/hasDeployment
	Uitwisselpunt --> Exploitatie : hasDeployment
	%% http://www.w3.org/ns/ssn/hasProperty
	Uitwisselpunt --> Systeemeigenschap : heeftEigenschap
	%% http://www.w3.org/ns/ssn/hasSubSystem
	Uitwisselpunt --> Filter : heeftSubSysteem
	%% https://data.riepr.omgeving.vlaanderen.be/ns/riepr#aangifte
	Uitwisselpunt --> Aangifte : aangifte
	Systeem <|-- Uitwisselpunt
	%% https://data.riepr.omgeving.vlaanderen.be/ns/riepr#Verbruik
	class Verbruik {
	  +String uuid
	  String uri
	  Proces[] wasDerivedFrom
	  Observatie[] isFeatureOfInterestOf
	}
	%% http://www.w3.org/ns/prov#wasDerivedFrom
	Verbruik --> Proces : wasDerivedFrom
	%% http://www.w3.org/ns/sosa/isFeatureOfInterestOf
	Verbruik --> Observatie : isFeatureOfInterestOf
	Gebeurtenis <|-- Verbruik
	%% http://www.w3.org/ns/sosa/FeatureOfInterest
	class Gebeurtenis {
	  <<interface>>
	  +String uuid
	  String uri
	}
	%% http://www.w3.org/ns/ssn/System
	class Systeem:::system {
	  <<interface>>
	  +String uuid
	  String uri
	}
	%% http://www.w3.org/ns/adms#Status
	class Status {
	  <<enumerable>>
	  DEFINITIEF_UIT_DIENST
	  IN_GEBRUIK
	  ONTMANTELD
	  VOORGESTELD
	}
	%% http://www.w3.org/ns/sosa/Procedure
	class Procedure:::procedure {
	  <<enumerable>>
	  EMISSIE
	  MEET
	  ONTTREKKING
	  TRANSPORT
	  UITWISSEL
	  VERWERKING
	}
	classDef system fill:#4bde2a,stroke:#000000
	classDef procedure fill:#ccffcc,stroke:#000000
	classDef result fill:#ccccff,stroke:#000000
	classDef exploitant fill:#f6ff00,stroke:#000000
	